<?xml version="1.0" standalone="no"?>
<!DOCTYPE svg PUBLIC "-//W3C//DTD SVG 20010904//EN"
 "http://www.w3.org/TR/2001/REC-SVG-20010904/DTD/svg10.dtd">
<svg version="1.0" xmlns="http://www.w3.org/2000/svg"
 width="361.000000pt" height="361.000000pt" viewBox="0 0 361.000000 361.000000"
 preserveAspectRatio="xMidYMid meet">
<metadata>
Created by potrace 1.14, written by Peter Selinger 2001-2017
</metadata>
<g transform="translate(0.000000,361.000000) scale(0.100000,-0.100000)"
fill="#000000" stroke="none">
<path d="M1740 3484 c-65 -13 -114 -37 -375 -189 -242 -139 -742 -428 -872
-502 -80 -46 -147 -131 -181 -228 -20 -58 -21 -83 -25 -735 -3 -375 0 -702 5
-735 12 -80 60 -177 117 -235 35 -35 186 -127 636 -386 325 -187 604 -346 620
-353 51 -23 206 -26 266 -7 28 10 315 169 638 354 637 367 668 388 723 503 15
31 32 85 37 120 13 80 14 1308 1 1397 -12 87 -57 178 -117 238 -31 31 -105 80
-197 133 -81 46 -149 82 -150 80 -2 -2 -69 -159 -149 -349 -412 -979 -920
-2185 -929 -2205 -7 -16 -16 -21 -27 -17 -15 6 -481 270 -491 279 -2 2 1 12 7
21 17 27 774 1230 1120 1782 113 179 238 377 278 440 80 127 80 120 3 164
l-46 27 -319 -373 c-495 -578 -1032 -1206 -1287 -1505 -127 -149 -234 -272
-239 -272 -4 -1 -48 22 -98 51 -124 70 -139 94 -139 215 l0 92 983 921 c540
506 983 924 984 928 2 4 -46 35 -105 69 -59 33 -177 101 -262 150 -85 49 -174
97 -198 106 -44 18 -166 29 -212 21z m268 -345 c78 -46 142 -86 142 -89 -1 -3
-53 -41 -118 -85 -140 -97 -601 -417 -1027 -715 -350 -244 -435 -303 -452
-313 -8 -5 -11 61 -10 266 l2 273 26 40 c20 30 58 57 160 115 290 166 790 454
899 518 142 84 135 81 190 77 35 -3 77 -22 188 -87z m1004 -583 c9 -5 26 -27
37 -47 21 -37 21 -43 19 -726 -3 -683 -3 -689 -24 -718 -14 -18 -129 -91 -320
-201 -164 -95 -300 -172 -301 -170 -1 1 8 42 21 92 13 49 50 188 81 309 31
121 72 279 90 350 52 197 196 757 250 965 26 102 50 189 52 193 3 4 21 -2 41
-15 20 -12 45 -26 54 -32z"/>
</g>
</svg>
