<svg width="236" height="29" viewBox="0 0 236 29" fill="none" xmlns="http://www.w3.org/2000/svg">
<path d="M20.349 12.703C19.97 13.0843 19.6798 13.5445 19.499 14.0507C19.3182 14.557 19.2513 15.0969 19.303 15.632L19.285 15.614C19.3382 16.2439 19.2532 16.8777 19.0361 17.4714C18.819 18.065 18.475 18.6041 18.0281 19.0511C17.5811 19.498 17.042 19.8421 16.4483 20.0591C15.8547 20.2762 15.2208 20.3612 14.591 20.308L14.609 20.326C13.8556 20.2559 13.0989 20.4198 12.442 20.7955C11.7852 21.1712 11.2602 21.7403 10.9387 22.4253C10.6172 23.1103 10.5147 23.8777 10.6453 24.6231C10.776 25.3684 11.1333 26.0553 11.6686 26.5901C12.2039 27.1249 12.8911 27.4816 13.6365 27.6115C14.382 27.7415 15.1493 27.6383 15.834 27.3162C16.5187 26.994 17.0873 26.4686 17.4624 25.8114C17.8375 25.1542 18.0008 24.3974 17.93 23.644L17.949 23.662C17.8958 23.0322 17.9807 22.3983 18.1978 21.8046C18.4149 21.211 18.759 20.6719 19.2059 20.2249C19.6529 19.778 20.192 19.4339 20.7856 19.2169C21.3793 18.9998 22.0131 18.9148 22.643 18.968L22.624 18.95C23.2394 19.0053 23.8589 18.9044 24.425 18.6566C24.991 18.4088 25.4854 18.0221 25.8622 17.5324C26.239 17.0427 26.4862 16.4657 26.5806 15.8551C26.6751 15.2444 26.6139 14.6198 26.4027 14.039C26.1915 13.4583 25.8371 12.9403 25.3724 12.533C24.9077 12.1257 24.3477 11.8423 23.7443 11.7091C23.1409 11.5759 22.5136 11.5971 21.9206 11.7708C21.3276 11.9446 20.7881 12.2652 20.352 12.703H20.349Z" fill="#1570EF"/>
<path d="M12.9718 17.968L12.9528 17.95C13.4881 18.0039 14.0287 17.9382 14.5356 17.7576C15.0424 17.577 15.5028 17.2861 15.8834 16.9058C16.2639 16.5255 16.5553 16.0653 16.7362 15.5586C16.9172 15.0519 16.9833 14.5114 16.9298 13.976L16.9488 13.994C16.8956 13.3641 16.9806 12.7303 17.1976 12.1366C17.4147 11.543 17.7588 11.0039 18.2057 10.5569C18.6527 10.11 19.1918 9.76593 19.7854 9.54893C20.3791 9.33179 21.0129 9.24686 21.6428 9.30003L21.6238 9.28203C22.3773 9.35283 23.1342 9.18939 23.7914 8.81413C24.4487 8.43887 24.9741 7.87 25.2961 7.18513C25.6181 6.50027 25.721 5.73274 25.5908 4.98723C25.4606 4.24172 25.1036 3.55454 24.5684 3.0194C24.0333 2.48427 23.3461 2.12723 22.6006 1.99701C21.8551 1.86678 21.0876 1.96969 20.4027 2.29171C19.7178 2.61372 19.149 3.13917 18.7737 3.79638C18.3984 4.45358 18.235 5.21055 18.3058 5.96403L18.2878 5.94503C18.3411 6.57492 18.2563 7.20886 18.0393 7.80258C17.8223 8.3963 17.4782 8.93549 17.0313 9.38253C16.5843 9.82943 16.0451 10.1735 15.4514 10.3905C14.8576 10.6075 14.2237 10.6923 13.5938 10.639L13.6118 10.658C13.0765 10.6041 12.5358 10.6698 12.029 10.8504C11.5222 11.0309 11.0618 11.3219 10.6812 11.7022C10.3006 12.0825 10.0093 12.5427 9.82834 13.0494C9.64744 13.5561 9.58134 14.0966 9.63484 14.632L9.61684 14.614C9.66984 15.2438 9.58474 15.8776 9.36764 16.4712C9.15044 17.0647 8.80644 17.6038 8.35954 18.0507C7.9126 18.4976 7.37356 18.8416 6.78 19.0588C6.18644 19.2759 5.55265 19.361 4.92284 19.308L4.94084 19.326C4.18736 19.2552 3.43039 19.4186 2.77318 19.7939C2.11598 20.1692 1.59053 20.738 1.26852 21.4229C0.946502 22.1078 0.843582 22.8753 0.973812 23.6208C1.10404 24.3663 1.46108 25.0535 1.99621 25.5886C2.53135 26.1238 3.21853 26.4808 3.96404 26.611C4.70955 26.7412 5.47708 26.6383 6.16195 26.3163C6.84681 25.9943 7.41568 25.4689 7.79094 24.8117C8.16624 24.1544 8.32964 23.3975 8.25884 22.644L8.27784 22.662C8.22464 22.0321 8.30964 21.3983 8.52674 20.8046C8.74374 20.211 9.08784 19.6719 9.53474 19.2249C9.98174 18.778 10.5208 18.4339 11.1144 18.2169C11.7081 17.9998 12.3419 17.9148 12.9718 17.968Z" fill="#1570EF"/>
<path d="M6.2699 15.961C6.64892 15.5798 6.9391 15.1196 7.11974 14.6133C7.30038 14.107 7.36702 13.567 7.3149 13.032L7.33389 13.05C7.28069 12.42 7.36565 11.7859 7.58286 11.1921C7.80007 10.5983 8.1443 10.0591 8.5915 9.61207C9.0387 9.16509 9.578 8.8211 10.1719 8.60415C10.7658 8.38719 11.3999 8.30249 12.0299 8.35597L12.0109 8.33797C12.7641 8.40854 13.5208 8.24505 14.1777 7.86981C14.8346 7.49458 15.3597 6.92585 15.6816 6.2412C16.0034 5.55654 16.1062 4.78929 15.976 4.04406C15.8458 3.29883 15.4888 2.61191 14.9539 2.07697C14.419 1.54203 13.732 1.18511 12.9868 1.05489C12.2416 0.92466 11.4743 1.02748 10.7897 1.3493C10.105 1.67112 9.5363 2.19629 9.1611 2.85319C8.7858 3.51009 8.6223 4.26675 8.6929 5.01997L8.6749 5.00197C8.7281 5.63182 8.6431 6.26569 8.426 6.85933C8.2089 7.45297 7.86492 7.99208 7.41796 8.43904C6.97101 8.886 6.43189 9.23003 5.83825 9.44707C5.24461 9.66417 4.61075 9.74917 3.9809 9.69597L3.9989 9.71397C3.38347 9.65877 2.76406 9.75987 2.19808 10.0078C1.6321 10.2557 1.13785 10.6425 0.761139 11.1323C0.384429 11.622 0.137449 12.199 0.0430689 12.8096C-0.0513011 13.4203 0.0099889 14.0449 0.221259 14.6255C0.432529 15.2062 0.786959 15.7241 1.25169 16.1313C1.71642 16.5386 2.27642 16.8219 2.8798 16.9551C3.48317 17.0882 4.1104 17.0669 4.70337 16.8932C5.29633 16.7194 5.83583 16.3988 6.27189 15.961H6.2699Z" fill="#1570EF"/>
<path d="M56.2481 14.2727C56.2481 16.1534 55.8958 17.7642 55.1913 19.1051C54.4924 20.4403 53.5379 21.4631 52.3277 22.1733C51.1231 22.8835 49.7566 23.2386 48.2282 23.2386C46.6998 23.2386 45.3305 22.8835 44.1203 22.1733C42.9157 21.4574 41.9612 20.4318 41.2566 19.0966C40.5578 17.7557 40.2083 16.1477 40.2083 14.2727C40.2083 12.392 40.5578 10.7841 41.2566 9.44886C41.9612 8.10795 42.9157 7.08239 44.1203 6.37216C45.3305 5.66193 46.6998 5.30682 48.2282 5.30682C49.7566 5.30682 51.1231 5.66193 52.3277 6.37216C53.5379 7.08239 54.4924 8.10795 55.1913 9.44886C55.8958 10.7841 56.2481 12.392 56.2481 14.2727ZM53.0691 14.2727C53.0691 12.9489 52.8618 11.8324 52.447 10.9233C52.0379 10.0085 51.4697 9.31818 50.7424 8.85227C50.0152 8.38068 49.1771 8.14489 48.2282 8.14489C47.2794 8.14489 46.4413 8.38068 45.714 8.85227C44.9868 9.31818 44.4157 10.0085 44.001 10.9233C43.5919 11.8324 43.3873 12.9489 43.3873 14.2727C43.3873 15.5966 43.5919 16.7159 44.001 17.6307C44.4157 18.5398 44.9868 19.2301 45.714 19.7017C46.4413 20.1676 47.2794 20.4006 48.2282 20.4006C49.1771 20.4006 50.0152 20.1676 50.7424 19.7017C51.4697 19.2301 52.0379 18.5398 52.447 17.6307C52.8618 16.7159 53.0691 15.5966 53.0691 14.2727ZM59.1011 27.9091V9.90909H62.1352V12.0739H62.3142C62.4733 11.7557 62.6977 11.4176 62.9875 11.0597C63.2772 10.696 63.6693 10.3864 64.1636 10.1307C64.6579 9.86932 65.2886 9.73864 66.0556 9.73864C67.067 9.73864 67.9789 9.99716 68.7914 10.5142C69.6096 11.0256 70.2573 11.7841 70.7346 12.7898C71.2176 13.7898 71.4591 15.017 71.4591 16.4716C71.4591 17.9091 71.2233 19.1307 70.7517 20.1364C70.2801 21.142 69.638 21.9091 68.8255 22.4375C68.013 22.9659 67.0926 23.2301 66.0642 23.2301C65.3142 23.2301 64.692 23.1051 64.1977 22.8551C63.7034 22.6051 63.3056 22.304 63.0045 21.9517C62.7091 21.5937 62.4789 21.2557 62.3142 20.9375H62.1863V27.9091H59.1011ZM62.1267 16.4545C62.1267 17.3011 62.246 18.0426 62.4846 18.679C62.7289 19.3153 63.0784 19.8125 63.5329 20.1705C63.9931 20.5227 64.55 20.6989 65.2034 20.6989C65.8852 20.6989 66.4562 20.517 66.9164 20.1534C67.3767 19.7841 67.7233 19.2812 67.9562 18.6449C68.1948 18.0028 68.3142 17.2727 68.3142 16.4545C68.3142 15.642 68.1977 14.9205 67.9647 14.2898C67.7318 13.6591 67.3852 13.1648 66.925 12.8068C66.4647 12.4489 65.8909 12.2699 65.2034 12.2699C64.5443 12.2699 63.9846 12.4432 63.5244 12.7898C63.0642 13.1364 62.7147 13.6222 62.4761 14.2472C62.2431 14.8722 62.1267 15.608 62.1267 16.4545ZM80.638 9.90909V12.2955H73.1125V9.90909H80.638ZM74.9704 6.77273H78.0556V19.0625C78.0556 19.4773 78.1181 19.7955 78.2431 20.017C78.3738 20.233 78.5443 20.3807 78.7545 20.4602C78.9647 20.5398 79.1977 20.5795 79.4534 20.5795C79.6466 20.5795 79.8227 20.5653 79.9818 20.5369C80.1466 20.5085 80.2716 20.483 80.3568 20.4602L80.8767 22.8722C80.7119 22.929 80.4761 22.9915 80.1693 23.0597C79.8681 23.1278 79.4988 23.1676 79.0613 23.179C78.2886 23.2017 77.5926 23.0852 76.9733 22.8295C76.3539 22.5682 75.8625 22.1648 75.4988 21.6193C75.1409 21.0739 74.9647 20.392 74.9704 19.5739V6.77273ZM83.2183 23V9.90909H86.3035V23H83.2183ZM84.7694 8.05114C84.2808 8.05114 83.8603 7.8892 83.5081 7.56534C83.1558 7.23579 82.9796 6.84091 82.9796 6.38068C82.9796 5.91477 83.1558 5.51989 83.5081 5.19602C83.8603 4.86648 84.2808 4.7017 84.7694 4.7017C85.2637 4.7017 85.6842 4.86648 86.0308 5.19602C86.3831 5.51989 86.5592 5.91477 86.5592 6.38068C86.5592 6.84091 86.3831 7.23579 86.0308 7.56534C85.6842 7.8892 85.2637 8.05114 84.7694 8.05114ZM89.4761 23V9.90909H92.425V12.1335H92.5784C92.8511 11.3835 93.3028 10.7983 93.9335 10.3778C94.5642 9.9517 95.317 9.73864 96.192 9.73864C97.0784 9.73864 97.8255 9.95455 98.4335 10.3864C99.0471 10.8125 99.4789 11.3949 99.7289 12.1335H99.8653C100.155 11.4062 100.644 10.8267 101.331 10.3949C102.024 9.95739 102.845 9.73864 103.794 9.73864C104.999 9.73864 105.982 10.1193 106.743 10.8807C107.505 11.642 107.885 12.7528 107.885 14.2131V23H104.791V14.6903C104.791 13.8778 104.576 13.2841 104.144 12.9091C103.712 12.5284 103.183 12.3381 102.558 12.3381C101.814 12.3381 101.232 12.571 100.811 13.0369C100.397 13.4972 100.189 14.0966 100.189 14.8352V23H97.1636V14.5625C97.1636 13.8864 96.9591 13.3466 96.55 12.9432C96.1466 12.5398 95.6181 12.3381 94.9647 12.3381C94.5216 12.3381 94.1181 12.4517 93.7545 12.679C93.3909 12.9006 93.1011 13.2159 92.8852 13.625C92.6693 14.0284 92.5613 14.5 92.5613 15.0398V23H89.4761ZM126.092 11.4347H122.904C122.813 10.9119 122.646 10.4489 122.402 10.0455C122.157 9.63636 121.853 9.28977 121.49 9.00568C121.126 8.72159 120.711 8.50852 120.245 8.36648C119.785 8.21875 119.288 8.14489 118.754 8.14489C117.805 8.14489 116.964 8.38352 116.231 8.86079C115.498 9.33239 114.924 10.0256 114.509 10.9403C114.095 11.8494 113.887 12.9602 113.887 14.2727C113.887 15.608 114.095 16.733 114.509 17.6477C114.93 18.5568 115.504 19.2443 116.231 19.7102C116.964 20.1705 117.802 20.4006 118.745 20.4006C119.268 20.4006 119.757 20.3324 120.211 20.196C120.671 20.054 121.083 19.8466 121.447 19.5739C121.816 19.3011 122.126 18.9659 122.376 18.5682C122.632 18.1705 122.808 17.7159 122.904 17.2045L126.092 17.2216C125.973 18.0511 125.714 18.8295 125.316 19.5568C124.924 20.2841 124.41 20.9261 123.774 21.483C123.137 22.0341 122.393 22.4659 121.541 22.7784C120.688 23.0852 119.742 23.2386 118.703 23.2386C117.169 23.2386 115.799 22.8835 114.595 22.1733C113.39 21.4631 112.441 20.4375 111.748 19.0966C111.055 17.7557 110.708 16.1477 110.708 14.2727C110.708 12.392 111.058 10.7841 111.757 9.44886C112.455 8.10795 113.407 7.08239 114.612 6.37216C115.816 5.66193 117.18 5.30682 118.703 5.30682C119.674 5.30682 120.578 5.44318 121.413 5.71591C122.248 5.98864 122.992 6.3892 123.646 6.91761C124.299 7.44034 124.836 8.08239 125.257 8.84375C125.683 9.59943 125.961 10.4631 126.092 11.4347ZM134.561 23.2557C133.283 23.2557 132.175 22.9744 131.237 22.4119C130.3 21.8494 129.573 21.0625 129.056 20.0511C128.544 19.0398 128.289 17.858 128.289 16.5057C128.289 15.1534 128.544 13.9687 129.056 12.9517C129.573 11.9347 130.3 11.1449 131.237 10.5824C132.175 10.0199 133.283 9.73864 134.561 9.73864C135.84 9.73864 136.948 10.0199 137.885 10.5824C138.823 11.1449 139.547 11.9347 140.058 12.9517C140.576 13.9687 140.834 15.1534 140.834 16.5057C140.834 17.858 140.576 19.0398 140.058 20.0511C139.547 21.0625 138.823 21.8494 137.885 22.4119C136.948 22.9744 135.84 23.2557 134.561 23.2557ZM134.578 20.7841C135.272 20.7841 135.851 20.5937 136.317 20.2131C136.783 19.8267 137.13 19.3097 137.357 18.6619C137.59 18.0142 137.706 17.2926 137.706 16.4972C137.706 15.696 137.59 14.9716 137.357 14.3239C137.13 13.6705 136.783 13.1506 136.317 12.7642C135.851 12.3778 135.272 12.1847 134.578 12.1847C133.868 12.1847 133.277 12.3778 132.806 12.7642C132.34 13.1506 131.99 13.6705 131.757 14.3239C131.53 14.9716 131.416 15.696 131.416 16.4972C131.416 17.2926 131.53 18.0142 131.757 18.6619C131.99 19.3097 132.34 19.8267 132.806 20.2131C133.277 20.5937 133.868 20.7841 134.578 20.7841ZM146.538 15.3295V23H143.453V9.90909H146.402V12.1335H146.555C146.856 11.4006 147.336 10.8182 147.995 10.3864C148.66 9.95455 149.481 9.73864 150.458 9.73864C151.362 9.73864 152.149 9.93182 152.819 10.3182C153.495 10.7045 154.018 11.2642 154.387 11.9972C154.762 12.7301 154.947 13.6193 154.941 14.6648V23H151.856V15.142C151.856 14.267 151.629 13.5824 151.174 13.0881C150.725 12.5937 150.103 12.3466 149.308 12.3466C148.768 12.3466 148.288 12.4659 147.867 12.7045C147.453 12.9375 147.126 13.2756 146.887 13.7188C146.654 14.1619 146.538 14.6989 146.538 15.3295ZM168.424 13.3693L165.612 13.6761C165.532 13.392 165.393 13.125 165.194 12.875C165.001 12.625 164.74 12.4233 164.41 12.2699C164.081 12.1165 163.677 12.0398 163.2 12.0398C162.558 12.0398 162.018 12.179 161.58 12.4574C161.149 12.7358 160.936 13.0966 160.941 13.5398C160.936 13.9205 161.075 14.2301 161.359 14.4688C161.649 14.7074 162.126 14.9034 162.791 15.0568L165.024 15.5341C166.262 15.8011 167.183 16.2244 167.785 16.804C168.393 17.3835 168.7 18.142 168.706 19.0795C168.7 19.9034 168.458 20.6307 167.981 21.2614C167.509 21.8864 166.853 22.375 166.012 22.7273C165.171 23.0795 164.206 23.2557 163.115 23.2557C161.512 23.2557 160.223 22.9205 159.245 22.25C158.268 21.5739 157.686 20.6335 157.498 19.429L160.507 19.1392C160.643 19.7301 160.933 20.1761 161.376 20.4773C161.819 20.7784 162.396 20.929 163.106 20.929C163.839 20.929 164.427 20.7784 164.87 20.4773C165.319 20.1761 165.544 19.804 165.544 19.3608C165.544 18.9858 165.399 18.6761 165.109 18.4318C164.825 18.1875 164.382 18 163.779 17.8693L161.546 17.4006C160.291 17.1392 159.362 16.6989 158.759 16.0795C158.157 15.4545 157.859 14.6648 157.865 13.7102C157.859 12.9034 158.078 12.2045 158.521 11.6136C158.97 11.017 159.592 10.5568 160.387 10.233C161.188 9.90341 162.112 9.73864 163.157 9.73864C164.691 9.73864 165.899 10.0653 166.779 10.7188C167.666 11.3722 168.214 12.2557 168.424 13.3693ZM179.593 17.4943V9.90909H182.679V23H179.687V20.6733H179.551C179.255 21.4062 178.769 22.0057 178.093 22.4716C177.423 22.9375 176.596 23.1705 175.613 23.1705C174.755 23.1705 173.997 22.9801 173.338 22.5994C172.684 22.2131 172.173 21.6534 171.804 20.9205C171.434 20.1818 171.25 19.2898 171.25 18.2443V9.90909H174.335V17.767C174.335 18.5966 174.562 19.2557 175.017 19.7443C175.471 20.233 176.068 20.4773 176.806 20.4773C177.261 20.4773 177.701 20.3665 178.127 20.1449C178.554 19.9233 178.903 19.5938 179.176 19.1562C179.454 18.7131 179.593 18.1591 179.593 17.4943ZM188.936 5.54545V23H185.851V5.54545H188.936ZM198.646 9.90909V12.2955H191.12V9.90909H198.646ZM192.978 6.77273H196.063V19.0625C196.063 19.4773 196.126 19.7955 196.251 20.017C196.382 20.233 196.552 20.3807 196.762 20.4602C196.973 20.5398 197.206 20.5795 197.461 20.5795C197.654 20.5795 197.831 20.5653 197.99 20.5369C198.154 20.5085 198.279 20.483 198.365 20.4602L198.884 22.8722C198.72 22.929 198.484 22.9915 198.177 23.0597C197.876 23.1278 197.507 23.1676 197.069 23.179C196.296 23.2017 195.6 23.0852 194.981 22.8295C194.362 22.5682 193.87 22.1648 193.507 21.6193C193.149 21.0739 192.973 20.392 192.978 19.5739V6.77273ZM201.226 23V9.90909H204.311V23H201.226ZM202.777 8.05114C202.289 8.05114 201.868 7.8892 201.516 7.56534C201.164 7.23579 200.987 6.84091 200.987 6.38068C200.987 5.91477 201.164 5.51989 201.516 5.19602C201.868 4.86648 202.289 4.7017 202.777 4.7017C203.272 4.7017 203.692 4.86648 204.039 5.19602C204.391 5.51989 204.567 5.91477 204.567 6.38068C204.567 6.84091 204.391 7.23579 204.039 7.56534C203.692 7.8892 203.272 8.05114 202.777 8.05114ZM210.569 15.3295V23H207.484V9.90909H210.433V12.1335H210.586C210.887 11.4006 211.367 10.8182 212.027 10.3864C212.691 9.95455 213.512 9.73864 214.49 9.73864C215.393 9.73864 216.18 9.93182 216.85 10.3182C217.527 10.7045 218.049 11.2642 218.419 11.9972C218.794 12.7301 218.978 13.6193 218.973 14.6648V23H215.887V15.142C215.887 14.267 215.66 13.5824 215.205 13.0881C214.757 12.5937 214.134 12.3466 213.339 12.3466C212.799 12.3466 212.319 12.4659 211.899 12.7045C211.484 12.9375 211.157 13.2756 210.919 13.7188C210.686 14.1619 210.569 14.6989 210.569 15.3295ZM227.802 28.1818C226.694 28.1818 225.742 28.0313 224.947 27.7301C224.152 27.4347 223.512 27.0369 223.029 26.5369C222.546 26.0369 222.211 25.483 222.024 24.875L224.802 24.2017C224.927 24.4574 225.109 24.7102 225.348 24.9602C225.586 25.2159 225.907 25.4261 226.311 25.5909C226.72 25.7614 227.234 25.8466 227.853 25.8466C228.728 25.8466 229.453 25.6335 230.027 25.2074C230.6 24.7869 230.887 24.0938 230.887 23.1278V20.6477H230.734C230.575 20.9659 230.342 21.2926 230.035 21.6278C229.734 21.9631 229.333 22.2443 228.833 22.4716C228.339 22.6989 227.717 22.8125 226.967 22.8125C225.961 22.8125 225.049 22.5767 224.231 22.1051C223.419 21.6278 222.771 20.9176 222.288 19.9744C221.811 19.0256 221.572 17.8381 221.572 16.4119C221.572 14.9744 221.811 13.7614 222.288 12.7727C222.771 11.7784 223.421 11.0256 224.24 10.5142C225.058 9.99716 225.97 9.73864 226.975 9.73864C227.742 9.73864 228.373 9.86932 228.867 10.1307C229.367 10.3864 229.765 10.696 230.061 11.0597C230.356 11.4176 230.581 11.7557 230.734 12.0739H230.904V9.90909H233.947V23.2131C233.947 24.3324 233.68 25.2585 233.146 25.9915C232.612 26.7244 231.882 27.2727 230.955 27.6364C230.029 28 228.978 28.1818 227.802 28.1818ZM227.828 20.392C228.481 20.392 229.038 20.233 229.498 19.9148C229.958 19.5966 230.308 19.1392 230.546 18.5426C230.785 17.946 230.904 17.2301 230.904 16.3949C230.904 15.571 230.785 14.8494 230.546 14.2301C230.313 13.6108 229.967 13.1307 229.507 12.7898C229.052 12.4432 228.492 12.2699 227.828 12.2699C227.14 12.2699 226.566 12.4489 226.106 12.8068C225.646 13.1648 225.299 13.6562 225.066 14.2812C224.833 14.9006 224.717 15.6051 224.717 16.3949C224.717 17.196 224.833 17.8977 225.066 18.5C225.305 19.0966 225.654 19.5625 226.115 19.8977C226.581 20.2273 227.152 20.392 227.828 20.392Z" fill="#263F63"/>
</svg>
